<svg width="128" height="128" viewBox="0 0 128 128" fill="none" xmlns="http://www.w3.org/2000/svg">
<path fill-rule="evenodd" clip-rule="evenodd" d="M64 1.51196C40.507 1.51196 21.455 20.559 21.455 44.057C21.455 62.854 33.645 78.802 50.55 84.427C52.676 84.821 53.457 83.504 53.457 82.38C53.457 81.366 53.417 78.014 53.399 74.46C41.562 77.033 39.065 69.44 39.065 69.44C37.13 64.522 34.341 63.214 34.341 63.214C30.481 60.574 34.631 60.628 34.631 60.628C38.904 60.928 41.154 65.013 41.154 65.013C44.948 71.517 51.107 69.636 53.534 68.549C53.917 65.799 55.019 63.921 56.236 62.859C46.786 61.784 36.852 58.135 36.852 41.833C36.852 37.188 38.514 33.393 41.236 30.413C40.794 29.341 39.338 25.013 41.648 19.153C41.648 19.153 45.22 18.011 53.348 23.516C56.743 22.573 60.383 22.1 63.998 22.084C67.614 22.101 71.256 22.574 74.656 23.516C82.776 18.012 86.344 19.154 86.344 19.154C88.66 25.014 87.204 29.341 86.762 30.414C89.49 33.392 91.14 37.188 91.14 41.834C91.14 58.174 81.187 61.772 71.713 62.824C73.239 64.144 74.599 66.734 74.599 70.704C74.599 76.396 74.551 80.977 74.551 82.378C74.551 83.508 75.317 84.836 77.473 84.418C94.369 78.786 106.543 62.844 106.543 44.053C106.545 20.56 87.497 1.51196 64 1.51196Z" fill="#181616"/>
<path d="M37.57 62.5959C37.475 62.8079 37.142 62.8709 36.84 62.7259C36.53 62.5859 36.358 62.2989 36.458 62.0859C36.548 61.8699 36.882 61.8089 37.191 61.9539C37.501 62.0939 37.677 62.3839 37.571 62.5959H37.57ZM39.293 64.5199C39.09 64.7069 38.693 64.6199 38.423 64.3219C38.145 64.0249 38.093 63.6279 38.299 63.4379C38.507 63.2499 38.892 63.3379 39.169 63.6349C39.449 63.9349 39.504 64.3279 39.292 64.5189L39.293 64.5199ZM40.97 66.9679C40.71 67.1499 40.283 66.9799 40.02 66.6009C39.758 66.2239 39.758 65.7709 40.025 65.5879C40.289 65.4059 40.709 65.5699 40.975 65.9449C41.237 66.3299 41.237 66.7849 40.97 66.9689V66.9679ZM43.268 69.3359C43.035 69.5929 42.538 69.5239 42.175 69.1729C41.803 68.8299 41.7 68.3429 41.933 68.0859C42.17 67.8289 42.669 67.9009 43.035 68.2489C43.405 68.5909 43.517 69.0789 43.268 69.3349V69.3359ZM46.44 70.7099C46.336 71.0439 45.858 71.1949 45.376 71.0539C44.894 70.9079 44.58 70.5179 44.676 70.1819C44.776 69.8459 45.258 69.6889 45.743 69.8399C46.223 69.9839 46.538 70.3699 46.439 70.7099H46.44ZM49.92 70.9649C49.933 71.3149 49.524 71.6069 49.018 71.6129C48.51 71.6249 48.098 71.3409 48.092 70.9949C48.092 70.6409 48.492 70.3529 49 70.3449C49.506 70.3349 49.92 70.6169 49.92 70.9649ZM53.16 70.4139C53.22 70.7559 52.87 71.1079 52.367 71.2009C51.873 71.2929 51.417 71.0809 51.353 70.7409C51.293 70.3909 51.65 70.0409 52.143 69.9489C52.646 69.8609 53.096 70.0669 53.16 70.4149V70.4139Z" fill="#181616"/>
<path d="M24.855 108.302H14.155C14.0224 108.302 13.8952 108.355 13.8014 108.448C13.7077 108.542 13.655 108.669 13.655 108.802V114.034C13.655 114.167 13.7077 114.294 13.8014 114.388C13.8952 114.481 14.0224 114.534 14.155 114.534H18.328V121.034C18.328 121.034 17.391 121.354 14.798 121.354C11.742 121.354 7.471 120.238 7.471 110.846C7.471 101.453 11.919 100.216 16.095 100.216C19.709 100.216 21.265 100.852 22.257 101.159C22.567 101.253 22.857 100.943 22.857 100.667L24.05 95.612C24.0519 95.5363 24.0355 95.4613 24.002 95.3934C23.9686 95.3254 23.9192 95.2666 23.858 95.222C23.455 94.934 21.001 93.562 14.8 93.562C7.656 93.562 0.328003 96.6 0.328003 111.212C0.328003 125.822 8.718 127.999 15.788 127.999C21.642 127.999 25.193 125.497 25.193 125.497C25.339 125.417 25.355 125.212 25.355 125.117V108.801C25.355 108.668 25.3023 108.541 25.2086 108.447C25.1148 108.354 24.9876 108.301 24.855 108.301V108.302ZM79.506 94.81H73.48C73.4143 94.8103 73.3492 94.8235 73.2886 94.8489C73.2279 94.8744 73.1729 94.9115 73.1267 94.9582C73.0804 95.005 73.0438 95.0603 73.019 95.1212C72.9942 95.1821 72.9816 95.2473 72.982 95.313L72.984 106.957H63.592V95.313C63.5924 95.2474 63.5799 95.1823 63.5551 95.1214C63.5303 95.0606 63.4938 95.0053 63.4477 94.9586C63.4015 94.9119 63.3466 94.8747 63.2861 94.8492C63.2256 94.8237 63.1607 94.8104 63.095 94.81H57.07C57.0043 94.8103 56.9392 94.8235 56.8786 94.8489C56.818 94.8744 56.7629 94.9115 56.7167 94.9582C56.6704 95.005 56.6338 95.0603 56.609 95.1212C56.5842 95.1821 56.5716 95.2473 56.572 95.313V126.843C56.572 127.12 56.796 127.346 57.07 127.346H63.095C63.1608 127.346 63.2258 127.332 63.2864 127.307C63.3469 127.281 63.4019 127.244 63.448 127.197C63.4942 127.15 63.5307 127.095 63.5554 127.034C63.5801 126.973 63.5925 126.908 63.592 126.842V113.356H72.984L72.968 126.842C72.968 127.12 73.192 127.346 73.468 127.346H79.506C79.5717 127.346 79.6368 127.332 79.6973 127.307C79.7579 127.281 79.8129 127.244 79.859 127.197C79.9052 127.15 79.9417 127.095 79.9664 127.034C79.9911 126.973 80.0035 126.908 80.003 126.842V95.312C80.003 95.034 79.783 94.81 79.506 94.81ZM32.34 95.527C30.196 95.527 28.456 97.28 28.456 99.45C28.456 101.617 30.196 103.375 32.34 103.375C34.486 103.375 36.225 101.617 36.225 99.45C36.225 97.28 34.485 95.527 32.34 95.527ZM35.296 105.135H29.29C29.014 105.135 28.768 105.419 28.768 105.695V126.547C28.768 127.16 29.15 127.342 29.644 127.342H35.054C35.649 127.342 35.794 127.05 35.794 126.537V120.191V105.638C35.7943 105.572 35.7816 105.507 35.7567 105.447C35.7318 105.386 35.6952 105.33 35.649 105.284C35.6027 105.237 35.5478 105.2 35.4872 105.175C35.4266 105.149 35.3617 105.136 35.296 105.136V105.135ZM102.902 105.182H96.922C96.8563 105.183 96.7914 105.196 96.731 105.222C96.6705 105.247 96.6157 105.284 96.5696 105.331C96.5236 105.378 96.4872 105.434 96.4625 105.494C96.4379 105.555 96.4255 105.62 96.426 105.686V121.146C96.426 121.146 94.906 122.256 92.751 122.256C90.596 122.256 90.024 121.279 90.024 119.168V105.686C90.0245 105.62 90.0121 105.555 89.9874 105.494C89.9627 105.433 89.9262 105.378 89.88 105.331C89.8339 105.284 89.7789 105.247 89.7183 105.221C89.6578 105.196 89.5927 105.182 89.527 105.182H83.459C83.3262 105.183 83.1992 105.237 83.1059 105.331C83.0126 105.426 82.9605 105.553 82.961 105.686V120.188C82.961 126.458 86.456 127.992 91.263 127.992C95.207 127.992 98.387 125.812 98.387 125.812C98.387 125.812 98.537 126.962 98.607 127.097C98.677 127.233 98.854 127.37 99.047 127.37L102.907 127.353C102.973 127.353 103.038 127.34 103.099 127.314C103.16 127.289 103.215 127.251 103.261 127.205C103.308 127.158 103.345 127.102 103.37 127.041C103.395 126.98 103.407 126.915 103.407 126.849L103.404 105.683C103.403 105.55 103.351 105.423 103.257 105.329C103.163 105.235 103.037 105.182 102.904 105.181L102.902 105.182ZM119.244 104.474C115.848 104.474 113.538 105.989 113.538 105.989V95.312C113.538 95.2464 113.526 95.1813 113.501 95.1204C113.476 95.0596 113.44 95.0043 113.394 94.9576C113.348 94.9109 113.293 94.8737 113.232 94.8482C113.172 94.8227 113.107 94.8094 113.041 94.809H107C106.934 94.809 106.869 94.822 106.808 94.8474C106.747 94.8727 106.692 94.9098 106.645 94.9565C106.599 95.0033 106.562 95.0587 106.537 95.1198C106.512 95.1808 106.5 95.2461 106.5 95.312V126.842C106.5 126.908 106.512 126.973 106.537 127.034C106.562 127.095 106.599 127.151 106.645 127.198C106.692 127.244 106.747 127.281 106.808 127.307C106.869 127.332 106.934 127.345 107 127.345H111.192C111.382 127.345 111.524 127.248 111.629 127.077C111.732 126.907 111.883 125.623 111.883 125.623C111.883 125.623 114.353 127.963 119.031 127.963C124.521 127.963 127.671 125.179 127.671 115.461C127.671 105.743 122.641 104.473 119.243 104.473L119.244 104.474ZM116.884 122.238C114.811 122.175 113.404 121.234 113.404 121.234V111.249C113.404 111.249 114.792 110.399 116.494 110.245C118.647 110.052 120.722 110.703 120.722 115.839C120.722 121.256 119.787 122.325 116.885 122.237L116.884 122.238ZM53.195 122.12C52.932 122.12 52.258 122.227 51.565 122.227C49.345 122.227 48.592 121.195 48.592 119.859V110.993H53.112C53.178 110.993 53.2434 110.98 53.3043 110.955C53.3652 110.929 53.4205 110.892 53.467 110.845C53.5135 110.798 53.5502 110.743 53.5751 110.682C53.6 110.62 53.6125 110.555 53.612 110.489V105.633C53.6123 105.567 53.5995 105.502 53.5745 105.441C53.5495 105.38 53.5127 105.325 53.4663 105.278C53.4198 105.232 53.3646 105.195 53.3038 105.169C53.243 105.144 53.1778 105.131 53.112 105.131H48.592L48.585 99.161C48.585 98.934 48.469 98.821 48.207 98.821H42.047C41.809 98.821 41.68 98.927 41.68 99.156V105.326C41.68 105.326 38.593 106.071 38.385 106.131C38.2811 106.161 38.1899 106.224 38.125 106.311C38.0601 106.398 38.025 106.503 38.025 106.611V110.488C38.0246 110.554 38.0372 110.619 38.0619 110.68C38.0867 110.74 38.1232 110.796 38.1693 110.842C38.2155 110.889 38.2704 110.926 38.3309 110.952C38.3914 110.977 38.4563 110.991 38.522 110.991H41.68V120.319C41.68 127.249 46.54 127.929 49.82 127.929C51.317 127.929 53.11 127.449 53.406 127.339C53.586 127.272 53.689 127.087 53.689 126.886L53.693 122.621C53.691 122.489 53.6377 122.363 53.5444 122.269C53.4511 122.175 53.3251 122.122 53.193 122.119L53.195 122.12Z" fill="#100E0F"/>
</svg>
