<svg width="128" height="128" viewBox="0 0 128 128" fill="none" xmlns="http://www.w3.org/2000/svg">
<path fill-rule="evenodd" clip-rule="evenodd" d="M36.965 35.4589C37.842 44.6909 38.712 53.8709 39.602 63.2569C41.053 60.7619 42.103 58.3689 43.687 56.4089C45.162 54.5829 47.021 52.8979 49.044 51.7309C51.685 50.2069 55.148 51.6419 56.004 54.3449C56.234 55.0699 55.685 56.0419 55.493 56.9009C54.847 56.5599 54.014 56.3719 53.592 55.8499C51.799 53.6329 50.719 53.3709 48.736 55.2869C45.037 58.8629 42.957 63.3429 42.163 68.3779C42.01 69.3519 42.619 70.4449 42.876 71.4829C43.887 71.1349 45.061 71.0069 45.878 70.3989C48.534 68.4219 50.18 65.7329 51.088 62.5189C51.285 61.8229 52.353 61.3739 53.021 60.8109C53.341 61.4689 54.071 62.2439 53.918 62.7649C52.511 67.6049 50.984 72.4139 49.382 77.1939C49.22 77.6779 48.331 77.9189 47.778 78.2729C47.555 77.6369 47.086 76.9709 47.161 76.3719C47.329 75.0139 47.766 73.6889 48.071 72.4449L40.831 75.7779C41.236 80.3999 41.656 85.5849 42.154 90.7629C42.536 94.7169 43.183 95.7409 47.077 96.4909C51.621 97.3659 56.25 97.9249 60.869 98.2649C67.694 98.7679 74.459 98.1459 81.099 96.3609C83.571 95.6969 84.557 94.0709 84.734 91.6439C84.896 89.4089 85.258 87.1879 85.509 84.9589C86.002 80.5679 86.481 76.1759 86.985 71.6009C85.318 72.6569 84.007 73.8389 82.474 74.3399C81.358 74.7049 79.95 74.1709 78.671 74.0369C78.916 72.8629 78.901 71.5399 79.467 70.5499C80.389 68.9319 81.691 67.5289 82.831 66.0349L82.34 65.4439C81.523 65.9269 80.508 66.2439 79.927 66.9289C78.745 68.3229 77.588 69.8149 76.797 71.4489C75.473 74.1839 74.464 77.0709 73.279 79.8749C72.764 81.0909 72.32 82.9509 70.595 82.2409C68.75 81.4799 70.048 79.8549 70.481 78.6989C71.17 76.8549 72.08 75.0929 72.696 73.7369C70.95 73.9449 69.18 74.1959 67.402 74.3509C66.65 74.4149 65.756 74.0029 65.141 74.2809C63.096 75.2049 61.8 74.8339 61.375 72.5699C60.428 73.1849 59.626 74.0179 58.681 74.2419C57.534 74.5149 55.978 74.6939 55.138 74.1209C54.465 73.6619 54.22 71.9369 54.45 70.9249C54.907 68.9129 55.761 66.9789 56.572 65.0659C57.074 63.8809 57.579 61.9889 59.273 62.8129C60.947 63.6259 59.427 64.9979 59.041 66.0989C58.442 67.8009 57.832 69.4999 57.228 71.1999L58.188 71.7799C59.102 70.9859 60.241 70.3389 60.881 69.3649C61.929 67.7729 62.562 65.9129 63.554 64.2789C63.965 63.6019 64.85 63.2139 65.521 62.6949C65.657 63.5569 65.983 64.4429 65.875 65.2749C65.768 66.1159 65.177 66.8849 64.894 67.7169C64.469 68.9629 64.126 70.2369 63.694 71.6859C65.737 71.7639 66.612 70.9039 67.189 69.3869C69.015 64.5939 70.861 59.8059 72.868 55.0869C73.211 54.2789 74.377 53.8229 75.164 53.2029C75.255 54.1769 75.689 55.2809 75.38 56.1019C73.735 60.4509 71.888 64.7219 70.152 69.0369C69.859 69.7639 69.765 70.5709 69.58 71.3409C72.639 69.9659 75.192 68.4459 76.124 65.1949C76.352 64.4049 77.286 63.8179 77.895 63.1369L79.311 64.6369C79.741 64.2749 80.135 63.8629 80.602 63.5619C82.072 62.6149 83.655 61.7799 85.205 63.2469C86.809 64.7639 85.595 66.2419 84.757 67.5539C83.845 68.9849 82.728 70.2839 81.7 71.6399C84.012 70.1499 87.169 69.4819 87.589 66.2619C88.613 58.3969 89.513 50.5159 90.426 42.6369C90.697 40.3049 90.842 37.9579 91.053 35.5279C72.843 39.9369 55.024 39.9639 36.965 35.4589ZM44.781 96.8279C45.658 99.1449 46.99 101.421 47.339 103.839C48.076 108.986 48.263 114.211 48.785 119.393C48.861 120.148 49.35 121.185 49.96 121.517C58.94 126.397 68.007 127.243 77.169 121.906C78.536 121.11 78.789 120.059 78.966 118.581C79.823 111.4 77.915 103.783 82.506 97.0209C69.65 100.21 57.103 100.309 44.781 96.8279ZM75.772 36.7479C80.134 36.3269 84.443 35.3029 88.757 34.4569C89.57 34.2979 90.292 33.6789 91.056 33.2719C90.049 32.3869 89.178 31.9609 88.268 31.8539C83.738 31.3189 79.192 30.9069 74.665 30.3459C73.981 30.2609 72.76 29.4169 72.811 29.2629C74.132 25.2829 74.067 20.7779 77.065 17.4239C80.854 13.1839 84.682 8.98093 88.481 4.77593C85.655 1.73593 85.617 1.73193 83.056 4.39293C81.608 5.89693 80.285 7.54293 78.714 8.90493C72.901 13.9429 68.818 19.9099 68.022 27.7769C67.839 29.5819 66.848 30.2339 64.953 30.2619C58.697 30.3529 52.434 30.5249 46.192 30.9359C43.099 31.1389 40.044 31.9329 36.971 32.4589L36.943 33.6079C38.866 34.2009 40.752 34.9799 42.716 35.3569C53.66 37.4549 64.707 37.8149 75.772 36.7479ZM72.276 33.9999C69.799 35.9999 67.752 35.9999 65.775 33.9999H72.276Z" fill="#EB4A4B"/>
</svg>
