<svg width="128" height="128" viewBox="0 0 128 128" fill="none" xmlns="http://www.w3.org/2000/svg">
<path d="M1.40796 1.40796H126.592V126.593H1.40796V1.40796Z" fill="#F0DB4F"/>
<path d="M116.347 96.7361C115.43 91.0251 111.706 86.2281 100.675 81.7551C96.8431 79.9941 92.5711 78.7331 91.2981 75.8291C90.8461 74.1391 90.7861 73.1871 91.0721 72.1641C91.8931 68.8441 95.8561 67.8091 98.9971 68.7611C101.02 69.4391 102.935 70.9981 104.09 73.4851C109.492 69.9871 109.481 70.0101 113.253 67.6061C111.872 65.4651 111.135 64.4771 110.231 63.5611C106.982 59.9321 102.555 58.0631 95.4751 58.2061L91.7871 58.6831C88.2531 59.5761 84.8851 61.4311 82.9101 63.9181C76.9841 70.6421 78.6741 82.4101 85.8851 87.2531C92.9891 92.5851 103.425 93.7981 104.758 98.7841C106.055 104.888 100.272 106.864 94.5241 106.162C90.2881 105.281 87.9321 103.128 85.3851 99.2131C80.6971 101.926 80.6971 101.926 75.8771 104.698C77.0201 107.197 78.2211 108.328 80.1371 110.493C89.2051 119.691 111.897 119.239 115.967 105.317C116.132 104.839 117.228 101.651 116.347 96.7361ZM69.4621 58.9431H57.7531L57.7051 89.2151C57.7051 95.6531 58.0381 101.555 56.9911 103.364C55.2781 106.922 50.8391 106.481 48.8161 105.791C46.7571 104.779 45.7101 103.34 44.4971 101.306C44.1641 100.722 43.9141 100.27 43.8301 100.235L34.3101 106.065C35.8931 109.314 38.2251 112.134 41.2121 113.966C45.6741 116.644 51.6711 117.465 57.9431 116.025C62.0251 114.836 65.5471 112.373 67.3911 108.624C70.0571 103.709 69.4851 97.7601 69.4611 91.1801C69.5211 80.4451 69.4621 69.7121 69.4621 58.9431Z" fill="#323330"/>
</svg>
