<svg width="80" height="80" viewBox="0 0 80 80" fill="none" xmlns="http://www.w3.org/2000/svg">
<circle cx="40" cy="40" r="40" fill="white"/>
<path d="M32.912 31.96C34.16 31.96 35.24 32.136 36.152 32.488C37.08 32.84 37.92 33.376 38.672 34.096L36.848 36.232C35.712 35.304 34.496 34.84 33.2 34.84C32.512 34.84 31.968 34.984 31.568 35.272C31.168 35.544 30.968 35.944 30.968 36.472C30.968 36.84 31.056 37.144 31.232 37.384C31.408 37.608 31.72 37.824 32.168 38.032C32.616 38.24 33.288 38.488 34.184 38.776C35.88 39.32 37.128 39.992 37.928 40.792C38.728 41.576 39.128 42.696 39.128 44.152C39.128 45.192 38.864 46.112 38.336 46.912C37.808 47.696 37.048 48.312 36.056 48.76C35.064 49.192 33.888 49.408 32.528 49.408C31.168 49.408 29.96 49.192 28.904 48.76C27.864 48.328 26.968 47.752 26.216 47.032L28.208 44.848C28.848 45.392 29.504 45.8 30.176 46.072C30.864 46.344 31.608 46.48 32.408 46.48C33.224 46.48 33.864 46.304 34.328 45.952C34.808 45.584 35.048 45.08 35.048 44.44C35.048 44.024 34.96 43.68 34.784 43.408C34.608 43.12 34.304 42.864 33.872 42.64C33.44 42.416 32.816 42.176 32 41.92C30.16 41.36 28.848 40.672 28.064 39.856C27.296 39.04 26.912 38.008 26.912 36.76C26.912 35.8 27.168 34.96 27.68 34.24C28.192 33.504 28.904 32.944 29.816 32.56C30.728 32.16 31.76 31.96 32.912 31.96ZM46.7664 42.64H45.2304V49H41.2944V32.368H46.7424C49.0144 32.368 50.7184 32.784 51.8544 33.616C53.0064 34.448 53.5824 35.72 53.5824 37.432C53.5824 38.504 53.3264 39.4 52.8144 40.12C52.3024 40.824 51.4944 41.424 50.3904 41.92L54.6144 49H50.1744L46.7664 42.64ZM45.2304 39.928H46.8864C47.7664 39.928 48.4224 39.728 48.8544 39.328C49.3024 38.928 49.5264 38.296 49.5264 37.432C49.5264 36.632 49.2864 36.048 48.8064 35.68C48.3424 35.312 47.6224 35.128 46.6464 35.128H45.2304V39.928Z" fill="#222222"/>
</svg>
